<svg width="1598" height="292" viewBox="0 0 1598 292" fill="none" xmlns="http://www.w3.org/2000/svg">
<path d="M15.1738 235.3L100.674 239.5C116.274 239.5 128.374 238.1 136.974 235.3C139.174 238.7 140.274 242.4 140.274 246.4C140.274 255.2 135.274 259.6 125.274 259.6L40.3738 255.7C24.7738 255.7 12.4738 257 3.47383 259.6C1.27383 256.2 0.173828 252.5 0.173828 248.5C0.173828 239.7 5.17383 235.3 15.1738 235.3ZM176.307 235.3L261.807 239.5C277.407 239.5 289.507 238.1 298.107 235.3C300.307 238.7 301.407 242.4 301.407 246.4C301.407 255.2 296.407 259.6 286.407 259.6L201.507 255.7C185.907 255.7 173.607 257 164.607 259.6C162.407 256.2 161.307 252.5 161.307 248.5C161.307 239.7 166.307 235.3 176.307 235.3ZM465.239 175.6C467.639 181 468.839 187.1 468.839 193.9C468.839 200.7 466.439 206.6 461.639 211.6C457.039 216.4 451.339 218.8 444.539 218.8C423.339 218.8 390.139 217.6 344.939 215.2C341.339 215 338.139 213.9 335.339 211.9C332.539 209.7 331.139 207 331.139 203.8C331.139 193.2 331.939 175.3 333.539 150.1C335.339 124.9 336.239 101.4 336.239 79.6C336.239 57.6 334.139 32.4 329.939 3.99999C344.739 5.19999 364.639 5.79998 389.639 5.79998C414.639 5.79998 438.539 3.99998 461.339 0.399981C463.739 4.79998 464.939 10.1 464.939 16.3C464.939 22.3 462.539 27.7 457.739 32.5C453.139 37.1 447.339 39.4 440.339 39.4C433.539 39.4 422.539 38.4 407.339 36.4C392.339 34.4 381.239 33.4 374.039 33.4C372.439 53.6 371.539 72.6 371.339 90.4C383.939 91.6 397.439 92.2 411.839 92.2C426.439 92.2 438.939 90.1 449.339 85.9C451.739 90.3 452.939 95.6 452.939 101.8C452.939 107.8 450.539 113.3 445.739 118.3C441.139 123.1 435.539 125.5 428.939 125.5C422.539 125.5 412.939 124.3 400.139 121.9C387.339 119.3 377.639 118 371.039 118C371.039 149.6 371.739 172.8 373.139 187.6C382.739 188.4 390.239 188.8 395.639 188.8C422.039 188.8 445.239 184.4 465.239 175.6ZM630.46 75.7C625.06 98.7 622.36 121.8 622.36 145C622.36 168 624.96 190.8 630.16 213.4C622.96 215.8 615.56 217 607.96 217C600.36 217 595.06 214.8 592.06 210.4C589.06 205.8 587.56 199.3 587.56 190.9C587.56 182.3 588.86 170.6 591.46 155.8C577.26 186.2 563.56 205.4 550.36 213.4C544.36 217 538.16 218.8 531.76 218.8C516.56 218.8 504.76 213.2 496.36 202C487.96 190.6 483.76 176.5 483.76 159.7C483.76 134.1 490.86 111.7 505.06 92.5C519.26 73.1 537.66 63.4 560.26 63.4C583.06 63.4 606.46 67.5 630.46 75.7ZM591.16 93.7C580.56 90.5 571.56 88.9 564.16 88.9C549.16 88.9 537.96 92.2 530.56 98.8C523.76 115.6 520.36 132.7 520.36 150.1C520.36 159.3 521.76 168.6 524.56 178C527.56 187.4 532.06 192.1 538.06 192.1C545.06 192.1 554.06 181.8 565.06 161.2C576.06 140.6 584.76 118.1 591.16 93.7ZM683.536 162.4C682.936 165.2 682.636 167.5 682.636 169.3C682.636 177.5 685.036 183.8 689.836 188.2C694.836 192.6 701.436 194.8 709.636 194.8C718.036 194.8 724.936 193.3 730.336 190.3C735.936 187.1 738.736 182.4 738.736 176.2C738.736 170 735.736 165.1 729.736 161.5C723.936 157.7 716.836 154.7 708.436 152.5C700.236 150.3 691.936 147.9 683.536 145.3C675.136 142.5 667.936 138.2 661.936 132.4C656.136 126.6 653.236 119.3 653.236 110.5C653.236 96.7 660.536 85.1 675.136 75.7C689.736 66.3 705.036 61.6 721.036 61.6C738.636 61.6 752.036 65.2 761.236 72.4C766.636 76.6 769.336 82.2 769.336 89.2C769.336 96 766.636 101.6 761.236 106C756.036 110.2 749.636 112.3 742.036 112.3C740.436 112.3 738.436 112.1 736.036 111.7C736.636 109.1 736.936 106.8 736.936 104.8C736.936 99 734.736 94.6 730.336 91.6C725.936 88.6 719.936 87.1 712.336 87.1C704.936 87.1 698.136 88.6 691.936 91.6C689.536 94.8 688.336 98.9 688.336 103.9C688.336 108.9 691.236 113 697.036 116.2C702.836 119.2 709.836 121.9 718.036 124.3C726.436 126.5 734.836 129.1 743.236 132.1C751.636 134.9 758.736 139.4 764.536 145.6C770.336 151.6 773.236 159.2 773.236 168.4C773.236 183.4 765.736 195.9 750.736 205.9C735.936 215.7 720.636 220.6 704.836 220.6C689.036 220.6 675.936 217.8 665.536 212.2C655.336 206.4 650.236 197.7 650.236 186.1C650.236 178.9 652.836 173.1 658.036 168.7C663.436 164.1 669.936 161.8 677.536 161.8C679.136 161.8 681.136 162 683.536 162.4ZM796.66 167.2L799.66 124C799.66 104.6 796.86 86.2 791.26 68.8C796.86 66.4 803.76 65.2 811.96 65.2C827.96 65.2 835.96 74.1 835.96 91.9C835.96 99.9 834.86 111.2 832.66 125.8C830.46 140.4 829.36 150.5 829.36 156.1C829.36 161.5 829.46 165.5 829.66 168.1C829.86 170.5 830.36 173.4 831.16 176.8C832.36 183.6 836.26 187 842.86 187C849.66 187 856.86 181.7 864.46 171.1C872.26 160.3 878.46 148.4 883.06 135.4C887.86 122.4 890.26 112.1 890.26 104.5C889.26 88.7 887.56 76.8 885.16 68.8C891.56 66.4 898.06 65.2 904.66 65.2C911.46 65.2 917.06 67.3 921.46 71.5C926.06 75.7 928.36 81.3 928.36 88.3C928.36 197.5 908.36 263 868.36 284.8C859.36 289.6 849.16 292 837.76 292C826.36 292 816.36 289 807.76 283C799.36 277 795.16 268.6 795.16 257.8C795.16 250.6 797.86 244.5 803.26 239.5C808.66 234.7 815.06 232.3 822.46 232.3C824.06 232.3 826.06 232.5 828.46 232.9C827.86 235.5 827.56 237.8 827.56 239.8C827.56 257.4 833.66 266.2 845.86 266.2C853.26 266.2 859.96 262.2 865.96 254.2C871.96 246.2 876.76 236.4 880.36 224.8C887.36 201.2 890.86 179.8 890.86 160.6C884.86 176.8 876.66 189.9 866.26 199.9C856.06 209.7 844.96 214.6 832.96 214.6C808.76 214.6 796.66 198.8 796.66 167.2ZM961.587 13.6C983.987 5.99999 1007.19 2.19999 1031.19 2.19999C1055.19 2.19999 1075.09 7.29999 1090.89 17.5C1106.69 27.7 1114.59 43.3 1114.59 64.3C1114.59 85.3 1107.19 103 1092.39 117.4C1077.59 131.6 1059.79 138.7 1038.99 138.7C1023.79 138.7 1016.19 132.9 1016.19 121.3C1016.19 117.7 1016.89 113.9 1018.29 109.9C1023.69 111.3 1028.59 112 1032.99 112C1046.79 112 1057.19 108.2 1064.19 100.6C1071.39 93 1074.99 82.5 1074.99 69.1C1074.99 55.5 1071.19 45.4 1063.59 38.8C1055.99 32.2 1045.39 28.9 1031.79 28.9C1024.79 28.9 1016.29 30.1 1006.29 32.5C1004.69 57.1 1003.89 78.9 1003.89 97.9C1003.89 151.1 1005.99 189.6 1010.19 213.4C1003.79 215.8 996.987 217 989.787 217C982.587 217 976.287 214.7 970.887 210.1C965.687 205.5 963.087 199.4 963.087 191.8C963.087 184.2 964.087 171 966.087 152.2C968.087 133.2 969.087 118 969.087 106.6C969.087 71.8 966.587 40.8 961.587 13.6ZM1139.43 167.2L1142.43 124C1142.43 104.6 1139.63 86.2 1134.03 68.8C1139.63 66.4 1146.53 65.2 1154.73 65.2C1170.73 65.2 1178.73 74.1 1178.73 91.9C1178.73 99.9 1177.63 111.2 1175.43 125.8C1173.23 140.4 1172.13 150.5 1172.13 156.1C1172.13 161.5 1172.23 165.5 1172.43 168.1C1172.63 170.5 1173.13 173.4 1173.93 176.8C1175.13 183.6 1179.03 187 1185.63 187C1192.43 187 1199.63 181.7 1207.23 171.1C1215.03 160.3 1221.23 148.4 1225.83 135.4C1230.63 122.4 1233.03 112.1 1233.03 104.5C1232.03 88.7 1230.33 76.8 1227.93 68.8C1234.33 66.4 1240.83 65.2 1247.43 65.2C1254.23 65.2 1259.83 67.3 1264.23 71.5C1268.83 75.7 1271.13 81.3 1271.13 88.3C1271.13 197.5 1251.13 263 1211.13 284.8C1202.13 289.6 1191.93 292 1180.53 292C1169.13 292 1159.13 289 1150.53 283C1142.13 277 1137.93 268.6 1137.93 257.8C1137.93 250.6 1140.63 244.5 1146.03 239.5C1151.43 234.7 1157.83 232.3 1165.23 232.3C1166.83 232.3 1168.83 232.5 1171.23 232.9C1170.63 235.5 1170.33 237.8 1170.33 239.8C1170.33 257.4 1176.43 266.2 1188.63 266.2C1196.03 266.2 1202.73 262.2 1208.73 254.2C1214.73 246.2 1219.53 236.4 1223.13 224.8C1230.13 201.2 1233.63 179.8 1233.63 160.6C1227.63 176.8 1219.43 189.9 1209.03 199.9C1198.83 209.7 1187.73 214.6 1175.73 214.6C1151.53 214.6 1139.43 198.8 1139.43 167.2ZM1311.56 235.3L1397.06 239.5C1412.66 239.5 1424.76 238.1 1433.36 235.3C1435.56 238.7 1436.66 242.4 1436.66 246.4C1436.66 255.2 1431.66 259.6 1421.66 259.6L1336.76 255.7C1321.16 255.7 1308.86 257 1299.86 259.6C1297.66 256.2 1296.56 252.5 1296.56 248.5C1296.56 239.7 1301.56 235.3 1311.56 235.3ZM1472.69 235.3L1558.19 239.5C1573.79 239.5 1585.89 238.1 1594.49 235.3C1596.69 238.7 1597.79 242.4 1597.79 246.4C1597.79 255.2 1592.79 259.6 1582.79 259.6L1497.89 255.7C1482.29 255.7 1469.99 257 1460.99 259.6C1458.79 256.2 1457.69 252.5 1457.69 248.5C1457.69 239.7 1462.69 235.3 1472.69 235.3Z" fill="url(#paint0_linear_5_8)"/>
<path d="M15.1738 235.3L100.674 239.5C116.274 239.5 128.374 238.1 136.974 235.3C139.174 238.7 140.274 242.4 140.274 246.4C140.274 255.2 135.274 259.6 125.274 259.6L40.3738 255.7C24.7738 255.7 12.4738 257 3.47383 259.6C1.27383 256.2 0.173828 252.5 0.173828 248.5C0.173828 239.7 5.17383 235.3 15.1738 235.3ZM176.307 235.3L261.807 239.5C277.407 239.5 289.507 238.1 298.107 235.3C300.307 238.7 301.407 242.4 301.407 246.4C301.407 255.2 296.407 259.6 286.407 259.6L201.507 255.7C185.907 255.7 173.607 257 164.607 259.6C162.407 256.2 161.307 252.5 161.307 248.5C161.307 239.7 166.307 235.3 176.307 235.3ZM465.239 175.6C467.639 181 468.839 187.1 468.839 193.9C468.839 200.7 466.439 206.6 461.639 211.6C457.039 216.4 451.339 218.8 444.539 218.8C423.339 218.8 390.139 217.6 344.939 215.2C341.339 215 338.139 213.9 335.339 211.9C332.539 209.7 331.139 207 331.139 203.8C331.139 193.2 331.939 175.3 333.539 150.1C335.339 124.9 336.239 101.4 336.239 79.6C336.239 57.6 334.139 32.4 329.939 3.99999C344.739 5.19999 364.639 5.79998 389.639 5.79998C414.639 5.79998 438.539 3.99998 461.339 0.399981C463.739 4.79998 464.939 10.1 464.939 16.3C464.939 22.3 462.539 27.7 457.739 32.5C453.139 37.1 447.339 39.4 440.339 39.4C433.539 39.4 422.539 38.4 407.339 36.4C392.339 34.4 381.239 33.4 374.039 33.4C372.439 53.6 371.539 72.6 371.339 90.4C383.939 91.6 397.439 92.2 411.839 92.2C426.439 92.2 438.939 90.1 449.339 85.9C451.739 90.3 452.939 95.6 452.939 101.8C452.939 107.8 450.539 113.3 445.739 118.3C441.139 123.1 435.539 125.5 428.939 125.5C422.539 125.5 412.939 124.3 400.139 121.9C387.339 119.3 377.639 118 371.039 118C371.039 149.6 371.739 172.8 373.139 187.6C382.739 188.4 390.239 188.8 395.639 188.8C422.039 188.8 445.239 184.4 465.239 175.6ZM630.46 75.7C625.06 98.7 622.36 121.8 622.36 145C622.36 168 624.96 190.8 630.16 213.4C622.96 215.8 615.56 217 607.96 217C600.36 217 595.06 214.8 592.06 210.4C589.06 205.8 587.56 199.3 587.56 190.9C587.56 182.3 588.86 170.6 591.46 155.8C577.26 186.2 563.56 205.4 550.36 213.4C544.36 217 538.16 218.8 531.76 218.8C516.56 218.8 504.76 213.2 496.36 202C487.96 190.6 483.76 176.5 483.76 159.7C483.76 134.1 490.86 111.7 505.06 92.5C519.26 73.1 537.66 63.4 560.26 63.4C583.06 63.4 606.46 67.5 630.46 75.7ZM591.16 93.7C580.56 90.5 571.56 88.9 564.16 88.9C549.16 88.9 537.96 92.2 530.56 98.8C523.76 115.6 520.36 132.7 520.36 150.1C520.36 159.3 521.76 168.6 524.56 178C527.56 187.4 532.06 192.1 538.06 192.1C545.06 192.1 554.06 181.8 565.06 161.2C576.06 140.6 584.76 118.1 591.16 93.7ZM683.536 162.4C682.936 165.2 682.636 167.5 682.636 169.3C682.636 177.5 685.036 183.8 689.836 188.2C694.836 192.6 701.436 194.8 709.636 194.8C718.036 194.8 724.936 193.3 730.336 190.3C735.936 187.1 738.736 182.4 738.736 176.2C738.736 170 735.736 165.1 729.736 161.5C723.936 157.7 716.836 154.7 708.436 152.5C700.236 150.3 691.936 147.9 683.536 145.3C675.136 142.5 667.936 138.2 661.936 132.4C656.136 126.6 653.236 119.3 653.236 110.5C653.236 96.7 660.536 85.1 675.136 75.7C689.736 66.3 705.036 61.6 721.036 61.6C738.636 61.6 752.036 65.2 761.236 72.4C766.636 76.6 769.336 82.2 769.336 89.2C769.336 96 766.636 101.6 761.236 106C756.036 110.2 749.636 112.3 742.036 112.3C740.436 112.3 738.436 112.1 736.036 111.7C736.636 109.1 736.936 106.8 736.936 104.8C736.936 99 734.736 94.6 730.336 91.6C725.936 88.6 719.936 87.1 712.336 87.1C704.936 87.1 698.136 88.6 691.936 91.6C689.536 94.8 688.336 98.9 688.336 103.9C688.336 108.9 691.236 113 697.036 116.2C702.836 119.2 709.836 121.9 718.036 124.3C726.436 126.5 734.836 129.1 743.236 132.1C751.636 134.9 758.736 139.4 764.536 145.6C770.336 151.6 773.236 159.2 773.236 168.4C773.236 183.4 765.736 195.9 750.736 205.9C735.936 215.7 720.636 220.6 704.836 220.6C689.036 220.6 675.936 217.8 665.536 212.2C655.336 206.4 650.236 197.7 650.236 186.1C650.236 178.9 652.836 173.1 658.036 168.7C663.436 164.1 669.936 161.8 677.536 161.8C679.136 161.8 681.136 162 683.536 162.4ZM796.66 167.2L799.66 124C799.66 104.6 796.86 86.2 791.26 68.8C796.86 66.4 803.76 65.2 811.96 65.2C827.96 65.2 835.96 74.1 835.96 91.9C835.96 99.9 834.86 111.2 832.66 125.8C830.46 140.4 829.36 150.5 829.36 156.1C829.36 161.5 829.46 165.5 829.66 168.1C829.86 170.5 830.36 173.4 831.16 176.8C832.36 183.6 836.26 187 842.86 187C849.66 187 856.86 181.7 864.46 171.1C872.26 160.3 878.46 148.4 883.06 135.4C887.86 122.4 890.26 112.1 890.26 104.5C889.26 88.7 887.56 76.8 885.16 68.8C891.56 66.4 898.06 65.2 904.66 65.2C911.46 65.2 917.06 67.3 921.46 71.5C926.06 75.7 928.36 81.3 928.36 88.3C928.36 197.5 908.36 263 868.36 284.8C859.36 289.6 849.16 292 837.76 292C826.36 292 816.36 289 807.76 283C799.36 277 795.16 268.6 795.16 257.8C795.16 250.6 797.86 244.5 803.26 239.5C808.66 234.7 815.06 232.3 822.46 232.3C824.06 232.3 826.06 232.5 828.46 232.9C827.86 235.5 827.56 237.8 827.56 239.8C827.56 257.4 833.66 266.2 845.86 266.2C853.26 266.2 859.96 262.2 865.96 254.2C871.96 246.2 876.76 236.4 880.36 224.8C887.36 201.2 890.86 179.8 890.86 160.6C884.86 176.8 876.66 189.9 866.26 199.9C856.06 209.7 844.96 214.6 832.96 214.6C808.76 214.6 796.66 198.8 796.66 167.2ZM961.587 13.6C983.987 5.99999 1007.19 2.19999 1031.19 2.19999C1055.19 2.19999 1075.09 7.29999 1090.89 17.5C1106.69 27.7 1114.59 43.3 1114.59 64.3C1114.59 85.3 1107.19 103 1092.39 117.4C1077.59 131.6 1059.79 138.7 1038.99 138.7C1023.79 138.7 1016.19 132.9 1016.19 121.3C1016.19 117.7 1016.89 113.9 1018.29 109.9C1023.69 111.3 1028.59 112 1032.99 112C1046.79 112 1057.19 108.2 1064.19 100.6C1071.39 93 1074.99 82.5 1074.99 69.1C1074.99 55.5 1071.19 45.4 1063.59 38.8C1055.99 32.2 1045.39 28.9 1031.79 28.9C1024.79 28.9 1016.29 30.1 1006.29 32.5C1004.69 57.1 1003.89 78.9 1003.89 97.9C1003.89 151.1 1005.99 189.6 1010.19 213.4C1003.79 215.8 996.987 217 989.787 217C982.587 217 976.287 214.7 970.887 210.1C965.687 205.5 963.087 199.4 963.087 191.8C963.087 184.2 964.087 171 966.087 152.2C968.087 133.2 969.087 118 969.087 106.6C969.087 71.8 966.587 40.8 961.587 13.6ZM1139.43 167.2L1142.43 124C1142.43 104.6 1139.63 86.2 1134.03 68.8C1139.63 66.4 1146.53 65.2 1154.73 65.2C1170.73 65.2 1178.73 74.1 1178.73 91.9C1178.73 99.9 1177.63 111.2 1175.43 125.8C1173.23 140.4 1172.13 150.5 1172.13 156.1C1172.13 161.5 1172.23 165.5 1172.43 168.1C1172.63 170.5 1173.13 173.4 1173.93 176.8C1175.13 183.6 1179.03 187 1185.63 187C1192.43 187 1199.63 181.7 1207.23 171.1C1215.03 160.3 1221.23 148.4 1225.83 135.4C1230.63 122.4 1233.03 112.1 1233.03 104.5C1232.03 88.7 1230.33 76.8 1227.93 68.8C1234.33 66.4 1240.83 65.2 1247.43 65.2C1254.23 65.2 1259.83 67.3 1264.23 71.5C1268.83 75.7 1271.13 81.3 1271.13 88.3C1271.13 197.5 1251.13 263 1211.13 284.8C1202.13 289.6 1191.93 292 1180.53 292C1169.13 292 1159.13 289 1150.53 283C1142.13 277 1137.93 268.6 1137.93 257.8C1137.93 250.6 1140.63 244.5 1146.03 239.5C1151.43 234.7 1157.83 232.3 1165.23 232.3C1166.83 232.3 1168.83 232.5 1171.23 232.9C1170.63 235.5 1170.33 237.8 1170.33 239.8C1170.33 257.4 1176.43 266.2 1188.63 266.2C1196.03 266.2 1202.73 262.2 1208.73 254.2C1214.73 246.2 1219.53 236.4 1223.13 224.8C1230.13 201.2 1233.63 179.8 1233.63 160.6C1227.63 176.8 1219.43 189.9 1209.03 199.9C1198.83 209.7 1187.73 214.6 1175.73 214.6C1151.53 214.6 1139.43 198.8 1139.43 167.2ZM1311.56 235.3L1397.06 239.5C1412.66 239.5 1424.76 238.1 1433.36 235.3C1435.56 238.7 1436.66 242.4 1436.66 246.4C1436.66 255.2 1431.66 259.6 1421.66 259.6L1336.76 255.7C1321.16 255.7 1308.86 257 1299.86 259.6C1297.66 256.2 1296.56 252.5 1296.56 248.5C1296.56 239.7 1301.56 235.3 1311.56 235.3ZM1472.69 235.3L1558.19 239.5C1573.79 239.5 1585.89 238.1 1594.49 235.3C1596.69 238.7 1597.79 242.4 1597.79 246.4C1597.79 255.2 1592.79 259.6 1582.79 259.6L1497.89 255.7C1482.29 255.7 1469.99 257 1460.99 259.6C1458.79 256.2 1457.69 252.5 1457.69 248.5C1457.69 239.7 1462.69 235.3 1472.69 235.3Z" fill="url(#paint1_linear_5_8)"/>
<defs>
<linearGradient id="paint0_linear_5_8" x1="1696.07" y1="23" x2="-101.391" y2="22.9998" gradientUnits="userSpaceOnUse">
<stop stop-color="#0229F8" stop-opacity="0"/>
<stop offset="0.406194" stop-color="#0B2FEF"/>
<stop offset="0.729116" stop-color="#0229F8" stop-opacity="0"/>
</linearGradient>
<linearGradient id="paint1_linear_5_8" x1="-221" y1="1.00005" x2="1802.39" y2="0.999944" gradientUnits="userSpaceOnUse">
<stop offset="0.468695" stop-color="#04F10E"/>
<stop offset="0.999954" stop-color="#1E25C2" stop-opacity="0"/>
</linearGradient>
</defs>
</svg>
